<svg width="468.5689208984375px" height="165.9199981689453px" xmlns="http://www.w3.org/2000/svg" viewBox="15.715539550781244 -7.959999084472656 468.5689208984375 165.9199981689453" style="background: rgb(253, 253, 253);" preserveAspectRatio="xMidYMid"><defs><filter id="editing-hole" x="-100%" y="-100%" width="300%" height="300%"><feFlood flood-color="#d6e4ef" result="black"></feFlood><feMorphology operator="dilate" radius="2" in="SourceGraphic" result="erode"></feMorphology><feGaussianBlur in="erode" stdDeviation="4" result="blur"></feGaussianBlur><feOffset in="blur" dx="2" dy="2" result="offset"></feOffset><feComposite operator="atop" in="offset" in2="black" result="merge"></feComposite><feComposite operator="in" in="merge" in2="SourceGraphic" result="inner-shadow"></feComposite></filter></defs><g filter="url(#editing-hole)"><g transform="translate(88.95152807235718, 109.68500328063965)"><path d="M26.56-56.90L26.56-56.90L26.56-56.90Q25.36-56.02 24.63-54.84L24.63-54.84L24.63-54.84Q23.89-53.67 23.89-52.01L23.89-52.01L23.89-52.01Q23.89-50.35 25.53-47.07L25.53-47.07L25.53-47.07Q24.15-45.52 20.66-44.51L20.66-44.51L20.66-44.51Q19.74-44.26 18.88-44.26L18.88-44.26L18.88-44.26Q18.01-44.26 17.05-45.14L17.05-45.14L17.05-45.14Q16.08-46.02 15.33-47.28L15.33-47.28L15.33-47.28Q13.65-50.10 13.65-52.09L13.65-52.09L13.65-52.09Q13.65-54.09 14.97-55.87L14.97-55.87L14.97-55.87Q16.29-57.66 18.50-59.15L18.50-59.15L18.50-59.15Q20.70-60.64 23.54-61.79L23.54-61.79L23.54-61.79Q26.37-62.95 29.39-63.74L29.39-63.74L29.39-63.74Q35.65-65.38 41.66-65.38L41.66-65.38L41.66-65.38Q54.09-65.38 54.09-52.91L54.09-52.91L54.09-52.91Q54.09-42.29 47.12-27.55L47.12-27.55L47.12-27.55Q39.85-12.18 30.23-3.95L30.23-3.95L30.23-3.95Q23.14 2.10 16.46 2.10L16.46 2.10L16.46 2.10Q9.74 2.10 6.00-2.27L6.00-2.27L6.00-2.27Q2.56-6.30 2.56-12.89L2.56-12.89L2.56-12.89Q2.56-18.69 7.31-24.86L7.31-24.86L7.31-24.86Q10.08-28.47 11.74-28.72L11.74-28.72L11.74-28.72Q13.40-28.97 14.70-28.60L14.70-28.60L14.70-28.60Q13.61-25.62 13.61-23.75L13.61-23.75L13.61-23.75Q13.61-21.88 14.07-20.39L14.07-20.39L14.07-20.39Q14.53-18.90 15.45-17.80L15.45-17.80L15.45-17.80Q17.47-15.41 20.83-15.41L20.83-15.41L20.83-15.41Q24.19-15.41 27.19-17.41L27.19-17.41L27.19-17.41Q30.19-19.40 33.13-22.65L33.13-22.65L33.13-22.65Q36.07-25.91 38.76-30.02L38.76-30.02L38.76-30.02Q41.45-34.14 43.50-38.38L43.50-38.38L43.50-38.38Q48.00-47.66 48.00-53.58L48.00-53.58L48.00-53.58Q48.00-59.04 42.79-59.96L42.79-59.96L42.79-59.96Q41.15-60.26 39.41-60.26L39.41-60.26L39.41-60.26Q37.67-60.26 35.99-60.07L35.99-60.07L35.99-60.07Q34.31-59.88 32.61-59.46L32.61-59.46L32.61-59.46Q30.91-59.04 29.33-58.41L29.33-58.41L29.33-58.41Q27.76-57.78 26.56-56.90ZM65.84-1.60L65.84-1.60L65.84-1.60Q65.84 0.08 63.03 0.08L63.03 0.08L63.03 0.08Q56.06 0.08 53.12-5.46L53.12-5.46L53.12-5.46Q52.03-7.43 52.03-10.16L52.03-10.16L52.03-10.16Q52.03-12.89 52.83-15.60L52.83-15.60L52.83-15.60Q53.62-18.31 54.97-20.95L54.97-20.95L54.97-20.95Q56.31-23.60 58.08-26.08L58.08-26.08L58.08-26.08Q59.84-28.55 61.81-30.65L61.81-30.65L61.81-30.65Q65.97-35.11 69.71-36.91L69.71-36.91L69.71-36.91Q70.71-37.37 71.53-37.37L71.53-37.37L71.53-37.37Q72.35-37.37 72.90-37.33L72.90-37.33L72.90-37.33Q74.28-37.21 74.96-36.28L74.96-36.28L74.96-36.28Q72.39-30.86 70.76-26.37L70.76-26.37L70.76-26.37Q78.23-33.72 88.14-36.41L88.14-36.41L88.14-36.41Q91.38-37.29 93.79-37.29L93.79-37.29L93.79-37.29Q96.20-37.29 96.58-36.39L96.58-36.39L96.58-36.39Q96.96-35.48 96.96-34.73L96.96-34.73L96.96-34.73Q96.96-33.97 96.75-32.69L96.75-32.69L96.75-32.69Q96.54-31.41 95.66-29.14L95.66-29.14L95.66-29.14Q94.78-26.88 93.85-24.57L93.85-24.57L93.85-24.57Q91.50-18.69 91.50-16.54L91.50-16.54L91.50-16.54Q91.50-12.85 94.15-12.85L94.15-12.85L94.15-12.85Q98.68-12.85 104.14-18.81L104.14-18.81L104.14-18.81Q105.74-20.53 107.04-22.51L107.04-22.51L107.04-22.51Q108.93-22.63 108.93-20.95L108.93-20.95L108.93-20.95Q108.93-19.61 107.21-16.52L107.21-16.52L107.21-16.52Q105.48-13.44 103.91-11.19L103.91-11.19L103.91-11.19Q102.33-8.94 100.36-6.80L100.36-6.80L100.36-6.80Q98.39-4.66 96.04-2.94L96.04-2.94L96.04-2.94Q90.91 0.80 86.04 0.80L86.04 0.80L86.04 0.80Q81.17 0.80 78.65-1.76L78.65-1.76L78.65-1.76Q76.13-4.33 76.13-9.24L76.13-9.24L76.13-9.24Q76.13-16.50 83.69-26.62L83.69-26.62L83.69-26.62Q86-29.69 85.71-29.69L85.71-29.69L85.71-29.69Q82.51-29.69 76.72-25.66L76.72-25.66L76.72-25.66Q70.97-21.63 67.94-17.09L67.94-17.09L67.94-17.09Q66.01-9.24 65.84-1.60ZM108.55-3.02L108.55-3.02L108.55-3.02Q105.36-6.42 103.85-10.77L103.85-10.77L103.85-10.77Q102.33-15.12 102.33-18.81L102.33-18.81L102.33-18.81Q102.33-22.51 102.73-22.97L102.73-22.97L102.73-22.97Q103.13-23.43 103.64-23.77L103.64-23.77L103.64-23.77Q104.52-24.36 105.78-24.69L105.78-24.69L105.78-24.69Q109.22-15.87 118.50-13.35L118.50-13.35L118.50-13.35Q121.48-12.51 124.53-12.51L124.53-12.51L124.53-12.51Q127.57-12.51 129.94-13.04L129.94-13.04L129.94-13.04Q132.32-13.56 134.08-14.70L134.08-14.70L134.08-14.70Q137.90-17.22 137.90-22.30L137.90-22.30L137.90-22.30Q137.90-26.16 134.84-30.91L134.84-30.91L134.84-30.91Q133.54-33.01 132.02-35.08L132.02-35.08L132.02-35.08Q130.51-37.16 129.21-39.30L129.21-39.30L129.21-39.30Q126.14-44.22 126.14-47.72L126.14-47.72L126.14-47.72Q126.14-51.23 127.13-53.56L127.13-53.56L127.13-53.56Q128.12-55.89 129.84-57.76L129.84-57.76L129.84-57.76Q131.56-59.63 133.89-61.06L133.89-61.06L133.89-61.06Q136.22-62.48 138.95-63.45L138.95-63.45L138.95-63.45Q144.41-65.38 150.54-65.38L150.54-65.38L150.54-65.38Q156.34-65.38 159.65-64.19L159.65-64.19L159.65-64.19Q162.97-62.99 164.38-61.73L164.38-61.73L164.38-61.73Q165.79-60.47 165.79-59.25L165.79-59.25L165.79-59.25Q165.79-58.03 165.41-57.21L165.41-57.21L165.41-57.21Q165.03-56.40 164.44-55.60L164.44-55.60L164.44-55.60Q163.18-53.96 161.96-53.12L161.96-53.12L161.96-53.12Q159.07-57.74 152.31-59.63L152.31-59.63L152.31-59.63Q150.12-60.22 147.71-60.22L147.71-60.22L147.71-60.22Q145.29-60.22 142.90-59.63L142.90-59.63L142.90-59.63Q140.51-59.04 138.70-57.95L138.70-57.95L138.70-57.95Q134.63-55.60 134.63-51.82L134.63-51.82L134.63-51.82Q134.63-49.76 136.08-47.70L136.08-47.70L136.08-47.70Q137.52-45.65 139.69-43.42L139.69-43.42L139.69-43.42Q141.85-41.19 144.37-38.76L144.37-38.76L144.37-38.76Q146.89-36.32 149.03-33.55L149.03-33.55L149.03-33.55Q154.11-27.08 154.11-20.81L154.11-20.81L154.11-20.81Q154.11-14.53 151.76-9.93L151.76-9.93L151.76-9.93Q149.41-5.33 145.42-2.27L145.42-2.27L145.42-2.27Q137.44 3.99 125.30 3.99L125.30 3.99L125.30 3.99Q115.06 3.99 108.55-3.02ZM173.64 0.04L173.64 0.04L173.64 0.04Q160.24 0.04 160.24-11.34L160.24-11.34L160.24-11.34Q160.24-19.27 170.78-33.34L170.78-33.34L170.78-33.34Q169.73-33.68 168.85-33.93L168.85-33.93L168.85-33.93Q167.97-34.18 167.42-34.37L167.42-34.37L167.42-34.37Q166.88-34.56 166.75-34.98L166.75-34.98L166.75-34.98Q166.63-35.40 166.67-35.95L166.67-35.95L166.67-35.95Q166.83-37.21 167.25-37.96L167.25-37.96L173.60-36.91L173.60-36.91Q181.03-45.94 186.40-49.30L186.40-49.30L186.40-49.30Q188.04-50.31 188.71-50.31L188.71-50.31L188.71-50.31Q189.38-50.31 189.91-50.12L189.91-50.12L189.91-50.12Q190.43-49.93 190.98-49.63L190.98-49.63L190.98-49.63Q192.16-49.00 192.83-48.17L192.83-48.17L192.83-48.17Q187.16-42.62 182.20-35.44L182.20-35.44L182.20-35.44Q191.82-33.76 193.96-33.64L193.96-33.64L193.96-33.64Q192.83-29.14 191.36-29.14L191.36-29.14L191.36-29.14Q187.75-29.14 179.47-31.12L179.47-31.12L179.47-31.12Q175.32-24.19 175.32-19.61L175.32-19.61L175.32-19.61Q175.32-13.31 183.80-13.31L183.80-13.31L183.80-13.31Q193.29-13.31 199.42-22.51L199.42-22.51L199.42-22.51Q201.31-22.63 201.31-20.95L201.31-20.95L201.31-20.95Q201.31-19.48 199.55-16.57L199.55-16.57L199.55-16.57Q197.78-13.65 196.02-11.51L196.02-11.51L196.02-11.51Q194.26-9.36 191.95-7.29L191.95-7.29L191.95-7.29Q189.64-5.21 186.82-3.57L186.82-3.57L186.82-3.57Q180.69 0.04 173.64 0.04ZM218.86-6.72L218.86-6.72L218.86-6.72Q213.11 0 204.84 0L204.84 0L204.84 0Q199.59 0 196.44-3.15L196.44-3.15L196.44-3.15Q193.33-6.26 193.33-11.34L193.33-11.34L193.33-11.34Q193.33-17.76 198.37-23.81L198.37-23.81L198.37-23.81Q203.24-29.69 211.14-33.38L211.14-33.38L211.14-33.38Q219.33-37.21 228.06-37.21L228.06-37.21L228.06-37.21Q231.38-37.21 232.80-36.16L232.80-36.16L232.80-36.16Q233.94-37.50 234.84-37.73L234.84-37.73L234.84-37.73Q235.74-37.96 236.25-37.96L236.25-37.96L236.25-37.96Q237.84-37.96 239.65-37.50L239.65-37.50L239.65-37.50Q239.48-36.95 238.94-35.63L238.94-35.63L238.94-35.63Q238.39-34.31 237.72-32.50L237.72-32.50L237.72-32.50Q237.05-30.70 236.29-28.55L236.29-28.55L236.29-28.55Q233.56-20.91 233.56-17.11L233.56-17.11L233.56-17.11Q233.56-13.31 235.95-13.31L235.95-13.31L235.95-13.31Q239.06-13.31 242.88-16.13L242.88-16.13L242.88-16.13Q246.28-18.69 248.85-22.51L248.85-22.51L248.85-22.51Q250.74-22.63 250.74-20.95L250.74-20.95L250.74-20.95Q250.74-19.53 248.99-16.59L248.99-16.59L248.99-16.59Q247.25-13.65 245.61-11.51L245.61-11.51L245.61-11.51Q243.97-9.36 241.96-7.31L241.96-7.31L241.96-7.31Q239.94-5.25 237.68-3.61L237.68-3.61L237.68-3.61Q232.59 0 227.77 0L227.77 0L227.77 0Q221.63 0 219.54-3.70L219.54-3.70L219.54-3.70Q218.86-4.83 218.86-5.69L218.86-5.69L218.86-5.69Q218.86-6.55 218.86-6.72ZM206.85-18.18L206.85-18.18L206.85-18.18Q206.85-13.31 210.93-13.31L210.93-13.31L210.93-13.31Q215.42-13.31 221.51-20.58L221.51-20.58L221.51-20.58Q224.74-24.44 227.16-27.97L227.16-27.97L227.16-27.97Q229.57-31.49 230.83-33.34L230.83-33.34L230.83-33.34Q220.33-33.26 213.40-28.55L213.40-28.55L213.40-28.55Q206.85-24.10 206.85-18.18ZM275.59-30.49L275.59-30.49L275.59-30.49Q272.40-32.17 269.95-32.17L269.95-32.17L269.95-32.17Q267.49-32.17 265.50-31.05L265.50-31.05L265.50-31.05Q263.50-29.94 261.99-28.13L261.99-28.13L261.99-28.13Q258.80-24.31 258.80-19.65L258.80-19.65L258.80-19.65Q258.80-16.13 261.32-14.11L261.32-14.11L261.32-14.11Q263.63-12.18 268.12-12.18L268.12-12.18L268.12-12.18Q272.61-12.18 276.96-14.84L276.96-14.84L276.96-14.84Q281.31-17.51 284.58-22.51L284.58-22.51L284.58-22.51Q286.47-22.63 286.47-20.95L286.47-20.95L286.47-20.95Q286.47-20.28 285.44-17.83L285.44-17.83L285.44-17.83Q284.41-15.37 281.73-11.76L281.73-11.76L281.73-11.76Q279.04-8.15 275.51-5.38L275.51-5.38L275.51-5.38Q267.87 0.63 258.88 0.63L258.88 0.63L258.88 0.63Q251.62 0.63 247.46-3.11L247.46-3.11L247.46-3.11Q243.26-6.89 243.26-13.98L243.26-13.98L243.26-13.98Q243.26-19.53 247.63-25.11L247.63-25.11L247.63-25.11Q251.70-30.36 257.92-33.72L257.92-33.72L257.92-33.72Q264.26-37.16 269.76-37.16L269.76-37.16L269.76-37.16Q272.74-37.16 274.38-36.16L274.38-36.16L274.38-36.16Q277.23-34.39 277.23-32.80L277.23-32.80L277.23-32.80Q277.23-31.07 275.59-30.49ZM291.80-1.68L291.80-1.68L291.80-1.68Q291.80 0 288.97 0L288.97 0L288.97 0Q286.13 0 284.22-0.57L284.22-0.57L284.22-0.57Q282.31-1.13 281.18-2.39L281.18-2.39L281.18-2.39Q279.00-4.75 279.00-10.46L279.00-10.46L279.00-10.46Q279.00-19.61 288.40-33.30L288.40-33.30L288.40-33.30Q293.74-41.03 298.50-45.98L298.50-45.98L298.50-45.98Q303.27-50.94 305.96-53.25L305.96-53.25L305.96-53.25Q311.79-58.29 314.19-58.29L314.19-58.29L314.19-58.29Q315.87-58.29 317.38-56.77L317.38-56.77L317.38-56.77Q309.31-48.88 302.81-38.00L302.81-38.00L302.81-38.00Q300.41-34.01 298.40-29.56L298.40-29.56L298.40-29.56Q305.58-35.06 313.18-36.79L313.18-36.79L313.18-36.79Q315.57-37.33 317.67-37.33L317.67-37.33L317.67-37.33Q321.70-37.33 321.70-33.64L321.70-33.64L321.70-33.64Q321.70-30.15 317.38-25.45L317.38-25.45L317.38-25.45Q313.64-21.42 309.06-18.90L309.06-18.90L309.06-18.90Q309.99-16.21 311.20-14.76L311.20-14.76L311.20-14.76Q312.42-13.31 314.37-13.31L314.37-13.31L314.37-13.31Q316.33-13.31 318.11-14.09L318.11-14.09L318.11-14.09Q319.90-14.87 321.62-16.13L321.62-16.13L321.62-16.13Q325.02-18.69 327.58-22.51L327.58-22.51L327.58-22.51Q329.47-22.63 329.47-20.95L329.47-20.95L329.47-20.95Q329.47-19.61 327.73-16.61L327.73-16.61L327.73-16.61Q325.99-13.61 324.31-11.42L324.31-11.42L324.31-11.42Q322.63-9.24 320.53-7.12L320.53-7.12L320.53-7.12Q318.43-5.00 316.03-3.36L316.03-3.36L316.03-3.36Q310.66 0.38 305.49 0.38L305.49 0.38L305.49 0.38Q297.18 0.38 296.72-14.53L296.72-14.53L296.72-14.53Q296.67-16.59 296.63-18.31L296.63-18.31L296.63-18.31Q301.76-20.24 305.64-22.68L305.64-22.68L305.64-22.68Q309.52-25.11 311.12-26.37L311.12-26.37L311.12-26.37Q314.73-29.31 314.73-31.37L314.73-31.37L314.73-31.37Q314.73-32.29 313.72-32.29L313.72-32.29L313.72-32.29Q312.72-32.29 311.37-31.85L311.37-31.85L311.37-31.85Q310.03-31.41 308.35-30.63L308.35-30.63L308.35-30.63Q306.67-29.86 304.80-28.76L304.80-28.76L304.80-28.76Q302.93-27.67 301.13-26.37L301.13-26.37L301.13-26.37Q297.05-23.35 294.87-20.41L294.87-20.41L294.87-20.41Q291.97-11.09 291.80-1.68Z" fill="#161718"></path></g></g><style>text {
  font-size: 64px;
  font-family: Arial Black;
  dominant-baseline: central;
  text-anchor: middle;
}</style></svg>